<svg xmlns="http://www.w3.org/2000/svg" xmlns:xlink="http://www.w3.org/1999/xlink"><symbol id="icon__arrow--down" viewBox="0 0 24 24"><path fill-rule="evenodd" clip-rule="evenodd" d="M7.47 9.47a.75.75 0 011.06 0L12 12.94l3.47-3.47a.75.75 0 111.06 1.06l-4 4a.75.75 0 01-1.06 0l-4-4a.75.75 0 010-1.06z" fill="#3C3C43" fill-opacity=".92"/></symbol><symbol id="icon__default" viewBox="0 0 48 48"><path fill="#f7df1e" d="M6 42V6h36v36H6z"/><path fill="#000001" d="M29.538 32.947c.692 1.124 1.444 2.201 3.037 2.201 1.338 0 2.04-.665 2.04-1.585 0-1.101-.726-1.492-2.198-2.133l-.807-.344c-2.329-.988-3.878-2.226-3.878-4.841 0-2.41 1.845-4.244 4.728-4.244 2.053 0 3.528.711 4.592 2.573l-2.514 1.607c-.553-.988-1.151-1.377-2.078-1.377-.946 0-1.545.597-1.545 1.377 0 .964.6 1.354 1.985 1.951l.807.344C36.452 29.645 38 30.839 38 33.523 38 36.415 35.716 38 32.65 38c-2.999 0-4.702-1.505-5.65-3.368l2.538-1.685zm-11.586.082c.506.906 1.275 1.603 2.381 1.603 1.058 0 1.667-.418 1.667-2.043V22h3.333v11.101c0 3.367-1.953 4.899-4.805 4.899-2.577 0-4.437-1.746-5.195-3.368l2.619-1.603z"/></symbol><symbol id="logo__default" viewBox="0 0 87 24"><rect x="3" y="3" width="8" height="8" rx="1" fill="#646CFF"/><rect x="12.5" y="2.5" width="9" height="9" rx="4.5" fill="#BD34FE"/><rect x="3" y="13" width="8" height="8" rx="1" fill="#646CFF"/><rect x="13" y="13" width="8" height="8" rx="1" fill="#646CFF"/><path d="M33.148 18V6.364h4.454c.841 0 1.54.132 2.097.397.56.262.979.62 1.256 1.074.28.455.42.97.42 1.546 0 .473-.09.878-.273 1.216a2.294 2.294 0 01-.733.812c-.306.208-.65.358-1.028.449v.114c.413.022.809.15 1.187.38.383.227.696.55.938.966.242.417.364.92.364 1.511 0 .603-.146 1.144-.438 1.625-.292.478-.731.855-1.318 1.131-.587.277-1.326.415-2.216.415h-4.71zm2.108-1.761h2.267c.765 0 1.316-.146 1.653-.438.341-.295.511-.674.511-1.136a1.74 1.74 0 00-.982-1.591c-.315-.163-.69-.245-1.125-.245h-2.324v3.41zm0-4.927h2.085c.364 0 .691-.066.983-.198.291-.137.52-.328.687-.574.17-.25.256-.546.256-.887 0-.45-.159-.822-.477-1.113-.315-.292-.782-.438-1.404-.438h-2.13v3.21zm13.879 3.018V9.272h2.057V18h-1.995v-1.551h-.09c-.197.488-.521.888-.972 1.199-.447.31-.998.466-1.654.466-.571 0-1.077-.127-1.517-.381a2.646 2.646 0 01-1.022-1.12c-.246-.492-.37-1.086-.37-1.784V9.273h2.057v5.238c0 .553.152.993.455 1.319.303.325.7.488 1.193.488.303 0 .597-.074.88-.221a1.79 1.79 0 00.7-.66c.185-.295.278-.664.278-1.107zM53.307 18V9.273h2.057V18h-2.057zm1.034-9.966a1.2 1.2 0 01-.841-.324 1.044 1.044 0 01-.352-.79c0-.31.117-.573.352-.79.235-.219.515-.329.84-.329.33 0 .61.11.842.33.235.216.352.479.352.79 0 .306-.117.57-.352.79a1.187 1.187 0 01-.841.323zm5.194-1.67V18H57.48V6.364h2.056zm5.354 11.79c-.685 0-1.299-.177-1.84-.529-.542-.352-.97-.864-1.285-1.534-.314-.67-.471-1.485-.471-2.443 0-.97.159-1.788.477-2.455.322-.67.756-1.176 1.301-1.517a3.344 3.344 0 011.824-.517c.511 0 .932.087 1.261.261.33.17.591.377.784.62.194.238.343.464.45.676h.084V6.364h2.063V18h-2.023v-1.375h-.125c-.106.212-.26.438-.46.676-.2.235-.466.436-.796.602-.329.167-.744.25-1.244.25zm.574-1.688c.436 0 .807-.117 1.114-.352.306-.239.54-.57.699-.995.159-.424.238-.918.238-1.483 0-.564-.08-1.055-.238-1.471-.156-.417-.387-.74-.694-.972-.303-.23-.676-.346-1.119-.346-.458 0-.84.119-1.148.357-.306.24-.537.569-.693.99-.155.42-.233.9-.233 1.442 0 .546.078 1.033.233 1.46.16.425.392.76.699 1.006.31.243.691.364 1.142.364zm10.13 1.704c-.876 0-1.631-.181-2.268-.545a3.694 3.694 0 01-1.46-1.557c-.34-.674-.511-1.468-.511-2.38 0-.898.17-1.686.511-2.364a3.866 3.866 0 011.443-1.591c.618-.383 1.343-.574 2.176-.574.538 0 1.046.087 1.523.261.481.17.905.436 1.273.796.371.36.663.818.875 1.375.212.553.318 1.212.318 1.977v.63H72.32v-1.386H77.5a2.212 2.212 0 00-.255-1.05c-.167-.311-.4-.556-.7-.734a1.965 1.965 0 00-1.033-.267c-.42 0-.79.103-1.108.307-.318.2-.567.466-.745.796a2.29 2.29 0 00-.266 1.073v1.21c0 .508.092.944.278 1.307.186.36.445.637.778.83.334.19.724.284 1.17.284.3 0 .57-.042.813-.125.243-.087.453-.214.63-.38.179-.167.313-.374.404-.62l1.92.216c-.12.508-.352.95-.692 1.33a3.379 3.379 0 01-1.296.875c-.526.204-1.129.306-1.807.306zm5.62-.17V9.273h1.994v1.454h.091c.16-.504.432-.892.819-1.165.39-.276.835-.414 1.335-.414.113 0 .24.005.38.017.144.007.264.02.358.04v1.892a2.167 2.167 0 00-.414-.08 3.82 3.82 0 00-.54-.04 2.08 2.08 0 00-1.012.245c-.295.159-.528.38-.698.664-.17.285-.256.612-.256.983V18h-2.057z" fill="CurrentColor" fill-opacity=".92"/></symbol><view id="icon__arrow--down-view" viewBox="0 0 24 24"/>
<use href="#icon__arrow--down" width="24" height="24" x="0" y="0"/>

<view id="icon__default-view" viewBox="0 80 24 24"/>
<use href="#icon__default" width="24" height="24" x="0" y="80"/>
</svg>